<svg xmlns="http://www.w3.org/2000/svg" xmlns:xlink="http://www.w3.org/1999/xlink" width="500" zoomAndPan="magnify" viewBox="0 0 375 374.999991" height="500" preserveAspectRatio="xMidYMid meet" version="1.0"><defs><clipPath id="b4f634a628"><path d="M 212 92 L 253 92 L 253 151 L 212 151 Z M 212 92 " clip-rule="nonzero"/></clipPath><clipPath id="49b816073b"><path d="M 51.578125 15.144531 L 379.460938 81.363281 L 323.191406 359.988281 L -4.691406 293.769531 Z M 51.578125 15.144531 " clip-rule="nonzero"/></clipPath><clipPath id="4131261f98"><path d="M 51.578125 15.144531 L 379.460938 81.363281 L 323.191406 359.988281 L -4.691406 293.769531 Z M 51.578125 15.144531 " clip-rule="nonzero"/></clipPath><clipPath id="0b11d11f8d"><path d="M 204 142 L 302 142 L 302 241 L 204 241 Z M 204 142 " clip-rule="nonzero"/></clipPath><clipPath id="6d8e37bb15"><path d="M 51.578125 15.144531 L 379.460938 81.363281 L 323.191406 359.988281 L -4.691406 293.769531 Z M 51.578125 15.144531 " clip-rule="nonzero"/></clipPath><clipPath id="fce022d45b"><path d="M 51.578125 15.144531 L 379.460938 81.363281 L 323.191406 359.988281 L -4.691406 293.769531 Z M 51.578125 15.144531 " clip-rule="nonzero"/></clipPath><clipPath id="8ca92cbd7e"><path d="M 258 62 L 304 62 L 304 129 L 258 129 Z M 258 62 " clip-rule="nonzero"/></clipPath><clipPath id="19edeca231"><path d="M 51.578125 15.144531 L 379.460938 81.363281 L 323.191406 359.988281 L -4.691406 293.769531 Z M 51.578125 15.144531 " clip-rule="nonzero"/></clipPath><clipPath id="78bb45575c"><path d="M 51.578125 15.144531 L 379.460938 81.363281 L 323.191406 359.988281 L -4.691406 293.769531 Z M 51.578125 15.144531 " clip-rule="nonzero"/></clipPath><clipPath id="13e64b122b"><path d="M 304 154 L 361 154 L 361 198 L 304 198 Z M 304 154 " clip-rule="nonzero"/></clipPath><clipPath id="542c6d30a5"><path d="M 51.578125 15.144531 L 379.460938 81.363281 L 323.191406 359.988281 L -4.691406 293.769531 Z M 51.578125 15.144531 " clip-rule="nonzero"/></clipPath><clipPath id="de642aeec5"><path d="M 51.578125 15.144531 L 379.460938 81.363281 L 323.191406 359.988281 L -4.691406 293.769531 Z M 51.578125 15.144531 " clip-rule="nonzero"/></clipPath><clipPath id="d32d94fb03"><path d="M 299 89 L 356 89 L 356 147 L 299 147 Z M 299 89 " clip-rule="nonzero"/></clipPath><clipPath id="0ae095cae9"><path d="M 51.578125 15.144531 L 379.460938 81.363281 L 323.191406 359.988281 L -4.691406 293.769531 Z M 51.578125 15.144531 " clip-rule="nonzero"/></clipPath><clipPath id="4ea59dc926"><path d="M 51.578125 15.144531 L 379.460938 81.363281 L 323.191406 359.988281 L -4.691406 293.769531 Z M 51.578125 15.144531 " clip-rule="nonzero"/></clipPath><clipPath id="ee9a5c98af"><path d="M 11 198 L 56 198 L 56 255 L 11 255 Z M 11 198 " clip-rule="nonzero"/></clipPath><clipPath id="c921e027d9"><path d="M 51.578125 15.144531 L 379.460938 81.363281 L 323.191406 359.988281 L -4.691406 293.769531 Z M 51.578125 15.144531 " clip-rule="nonzero"/></clipPath><clipPath id="f7fdf3e188"><path d="M 51.578125 15.144531 L 379.460938 81.363281 L 323.191406 359.988281 L -4.691406 293.769531 Z M 51.578125 15.144531 " clip-rule="nonzero"/></clipPath><clipPath id="18c930840b"><path d="M 50 216 L 150 216 L 150 308 L 50 308 Z M 50 216 " clip-rule="nonzero"/></clipPath><clipPath id="6a7b66d074"><path d="M 51.578125 15.144531 L 379.460938 81.363281 L 323.191406 359.988281 L -4.691406 293.769531 Z M 51.578125 15.144531 " clip-rule="nonzero"/></clipPath><clipPath id="12c07f6519"><path d="M 51.578125 15.144531 L 379.460938 81.363281 L 323.191406 359.988281 L -4.691406 293.769531 Z M 51.578125 15.144531 " clip-rule="nonzero"/></clipPath><clipPath id="31ced3f864"><path d="M 31 145 L 82 145 L 82 208 L 31 208 Z M 31 145 " clip-rule="nonzero"/></clipPath><clipPath id="318f73951e"><path d="M 51.578125 15.144531 L 379.460938 81.363281 L 323.191406 359.988281 L -4.691406 293.769531 Z M 51.578125 15.144531 " clip-rule="nonzero"/></clipPath><clipPath id="76a2b0515d"><path d="M 51.578125 15.144531 L 379.460938 81.363281 L 323.191406 359.988281 L -4.691406 293.769531 Z M 51.578125 15.144531 " clip-rule="nonzero"/></clipPath><clipPath id="9d0f32cd2d"><path d="M 123 182 L 169 182 L 169 238 L 123 238 Z M 123 182 " clip-rule="nonzero"/></clipPath><clipPath id="4967d23199"><path d="M 51.578125 15.144531 L 379.460938 81.363281 L 323.191406 359.988281 L -4.691406 293.769531 Z M 51.578125 15.144531 " clip-rule="nonzero"/></clipPath><clipPath id="de81eda937"><path d="M 51.578125 15.144531 L 379.460938 81.363281 L 323.191406 359.988281 L -4.691406 293.769531 Z M 51.578125 15.144531 " clip-rule="nonzero"/></clipPath><clipPath id="e898f7fc34"><path d="M 85 133 L 130 133 L 130 200 L 85 200 Z M 85 133 " clip-rule="nonzero"/></clipPath><clipPath id="0c73be2e16"><path d="M 51.578125 15.144531 L 379.460938 81.363281 L 323.191406 359.988281 L -4.691406 293.769531 Z M 51.578125 15.144531 " clip-rule="nonzero"/></clipPath><clipPath id="85d3dea557"><path d="M 51.578125 15.144531 L 379.460938 81.363281 L 323.191406 359.988281 L -4.691406 293.769531 Z M 51.578125 15.144531 " clip-rule="nonzero"/></clipPath></defs><g clip-path="url(#b4f634a628)"><g clip-path="url(#49b816073b)"><g clip-path="url(#4131261f98)"><path fill="#896820" d="M 222.167969 98.996094 C 226.808594 93.832031 231.855469 91.578125 237.21875 92.304688 C 242.667969 93.261719 246.773438 96.964844 249.421875 103.324219 C 252.023438 109.84375 252.671875 117.140625 251.355469 125.015625 C 250.003906 133.078125 246.957031 139.445312 242.34375 143.898438 C 239.890625 146.546875 237.363281 148.410156 234.609375 149.59375 C 232.132812 150.664062 229.566406 150.96875 227 150.519531 L 226.8125 150.488281 C 221.597656 149.574219 217.582031 145.867188 214.890625 139.5 C 212.066406 133.324219 211.394531 126.0625 212.886719 117.964844 C 214.039062 110.277344 217.175781 103.871094 222.167969 98.996094 " fill-opacity="1" fill-rule="nonzero"/></g></g></g><g clip-path="url(#0b11d11f8d)"><g clip-path="url(#6d8e37bb15)"><g clip-path="url(#fce022d45b)"><path fill="#896820" d="M 238.539062 153.585938 C 254.085938 142.921875 267.851562 139.820312 279.332031 144.363281 L 279.523438 144.453125 C 280.96875 145.320312 282.367188 146.296875 283.671875 147.375 C 292.753906 154.859375 298.375 167.625 300.359375 185.304688 C 301.011719 191.421875 301.304688 198.03125 301.234375 205.011719 C 300.554688 216.050781 298.628906 224.769531 295.460938 231.027344 C 290.914062 238.675781 285.042969 241.925781 278.011719 240.691406 C 271.539062 239.554688 264.007812 234.453125 255.570312 225.480469 C 251.597656 220.757812 246.804688 217.871094 241.308594 216.910156 C 240.613281 216.789062 239.910156 216.695312 239.136719 216.621094 C 237.503906 216.40625 235.898438 216.15625 234.375 215.890625 C 225.363281 214.304688 218.269531 211.855469 213.300781 208.621094 C 208.238281 205.445312 205.304688 201.519531 204.59375 196.96875 C 203.632812 190.828125 206.574219 183.78125 213.660156 175.367188 C 222.46875 166.191406 230.835938 158.867188 238.539062 153.585938 " fill-opacity="1" fill-rule="nonzero"/></g></g></g><g clip-path="url(#8ca92cbd7e)"><g clip-path="url(#19edeca231)"><g clip-path="url(#78bb45575c)"><path fill="#896820" d="M 292.613281 121.03125 C 287.246094 126.984375 281.429688 129.457031 275.339844 128.386719 L 275.292969 128.378906 C 269.363281 127.121094 264.824219 122.832031 261.832031 115.6875 C 258.417969 108.574219 257.578125 100.5 259.324219 91.683594 C 261.050781 82.632812 264.507812 75.277344 269.59375 69.816406 C 274.964844 64.050781 280.722656 61.65625 286.703125 62.714844 L 286.890625 62.746094 C 292.683594 63.835938 297.359375 67.972656 300.78125 75.042969 L 300.835938 75.171875 C 303.503906 82.53125 304.078125 90.40625 302.59375 99.222656 C 301.882812 103.667969 300.582031 107.792969 298.753906 111.4375 C 297.226562 114.839844 295.164062 118.058594 292.613281 121.03125 " fill-opacity="1" fill-rule="nonzero"/></g></g></g><g clip-path="url(#13e64b122b)"><g clip-path="url(#542c6d30a5)"><g clip-path="url(#de642aeec5)"><path fill="#896820" d="M 307.714844 172.433594 C 310.734375 167.292969 315.277344 163.132812 321.585938 159.726562 C 322.109375 159.425781 322.664062 159.15625 323.222656 158.882812 C 323.535156 158.738281 323.84375 158.585938 324.160156 158.425781 C 331.007812 154.9375 337.960938 153.789062 344.820312 154.992188 L 345.015625 155.03125 C 351.898438 155.75 356.621094 158.53125 359.125 163.34375 C 361.492188 168.289062 360.84375 173.796875 357.183594 179.726562 C 353.4375 185.578125 347.875 190.324219 340.636719 193.824219 C 336.472656 195.800781 332.484375 197.050781 328.773438 197.539062 C 325.6875 197.90625 322.722656 197.847656 320.019531 197.371094 C 320.015625 197.378906 320.011719 197.375 320.011719 197.375 C 319.613281 197.316406 319.21875 197.257812 318.839844 197.191406 C 315.804688 196.652344 313.132812 195.703125 310.882812 194.355469 C 308.5625 192.914062 306.8125 191.015625 305.683594 188.699219 C 303.359375 183.902344 304.046875 178.425781 307.714844 172.433594 " fill-opacity="1" fill-rule="nonzero"/></g></g></g><g clip-path="url(#d32d94fb03)"><g clip-path="url(#0ae095cae9)"><g clip-path="url(#4ea59dc926)"><path fill="#896820" d="M 343.410156 133.019531 C 340.167969 136.472656 336.871094 139.101562 333.40625 141.015625 C 330.199219 143.09375 326.699219 144.621094 322.960938 145.574219 L 322.378906 145.703125 C 321.390625 145.925781 320.453125 146.132812 319.5 146.257812 C 317.09375 146.578125 314.832031 146.554688 312.773438 146.195312 C 309.582031 145.636719 306.800781 144.25 304.472656 142.039062 C 300.230469 137.707031 298.871094 131.628906 300.40625 124.054688 C 301.507812 116.277344 305.292969 109.097656 311.660156 102.726562 C 314.386719 99.976562 317.265625 97.589844 320.222656 95.636719 C 324.214844 93.015625 328.167969 91.238281 332.335938 90.183594 C 340 88.417969 346.171875 89.707031 350.640625 93.988281 C 354.820312 98.0625 356.425781 104.085938 355.398438 111.90625 L 355.390625 111.972656 L 355.371094 112.046875 C 353.519531 119.511719 349.492188 126.566406 343.410156 133.019531 " fill-opacity="1" fill-rule="nonzero"/></g></g></g><g clip-path="url(#ee9a5c98af)"><g clip-path="url(#c921e027d9)"><g clip-path="url(#f7fdf3e188)"><path fill="#896820" d="M 19.667969 200.269531 C 24.605469 197.777344 30.113281 198.292969 36.042969 201.796875 C 42.03125 205.460938 46.921875 210.914062 50.589844 218.011719 C 54.339844 225.277344 55.710938 232.207031 54.6875 238.535156 C 54.308594 242.121094 53.398438 245.128906 51.90625 247.71875 C 50.570312 250.058594 48.699219 251.84375 46.371094 253.019531 L 46.207031 253.105469 C 41.476562 255.492188 36.039062 254.929688 30.066406 251.441406 C 24.105469 248.179688 19.21875 242.761719 15.5625 235.386719 C 11.875 228.539062 10.550781 221.527344 11.625 214.644531 C 12.246094 207.726562 14.9375 202.894531 19.667969 200.269531 " fill-opacity="1" fill-rule="nonzero"/></g></g></g><g clip-path="url(#18c930840b)"><g clip-path="url(#6a7b66d074)"><g clip-path="url(#12c07f6519)"><path fill="#896820" d="M 84.582031 216.761719 L 84.792969 216.730469 C 86.464844 216.554688 88.171875 216.503906 89.867188 216.585938 C 101.625 217.148438 113.765625 224.003906 125.957031 236.976562 C 130.140625 241.492188 134.339844 246.601562 138.464844 252.238281 C 144.53125 261.484375 148.21875 269.625 149.429688 276.53125 C 150.371094 285.378906 147.621094 291.5 141.25 294.71875 C 135.386719 297.679688 126.296875 298.105469 114.164062 295.964844 C 108.164062 294.5625 102.589844 295.121094 97.609375 297.636719 C 96.984375 297.953125 96.359375 298.304688 95.699219 298.707031 C 94.257812 299.511719 92.828125 300.273438 91.449219 300.96875 C 83.289062 305.089844 76.132812 307.375 70.21875 307.757812 C 64.257812 308.238281 59.570312 306.855469 56.265625 303.636719 C 51.816406 299.289062 49.945312 291.886719 50.574219 280.90625 C 52.136719 268.292969 54.449219 257.410156 57.445312 248.570312 C 63.507812 230.722656 72.667969 220.003906 84.582031 216.761719 " fill-opacity="1" fill-rule="nonzero"/></g></g></g><g clip-path="url(#31ced3f864)"><g clip-path="url(#318f73951e)"><g clip-path="url(#76a2b0515d)"><path fill="#896820" d="M 71.816406 206.359375 L 71.785156 206.371094 L 71.769531 206.375 C 66.269531 208.925781 60.0625 208.207031 53.386719 204.277344 C 46.390625 200.621094 40.878906 194.65625 36.996094 186.542969 C 32.957031 178.261719 31.316406 170.296875 32.113281 162.878906 C 32.964844 155.050781 36.136719 149.6875 41.558594 146.949219 L 41.730469 146.867188 C 47.019531 144.269531 53.242188 144.792969 60.222656 148.40625 L 60.34375 148.472656 C 66.886719 152.773438 72.066406 158.734375 76.160156 166.6875 C 78.25 170.675781 79.683594 174.757812 80.40625 178.769531 C 81.21875 182.410156 81.5 186.222656 81.242188 190.128906 C 80.507812 198.109375 77.335938 203.570312 71.816406 206.359375 " fill-opacity="1" fill-rule="nonzero"/></g></g></g><g clip-path="url(#9d0f32cd2d)"><g clip-path="url(#4967d23199)"><g clip-path="url(#de81eda937)"><path fill="#896820" d="M 148.925781 234.878906 C 148.921875 234.882812 148.921875 234.882812 148.921875 234.882812 C 148.566406 235.078125 148.21875 235.261719 147.871094 235.441406 C 145.121094 236.824219 142.414062 237.667969 139.804688 237.925781 C 137.082031 238.167969 134.542969 237.6875 132.246094 236.507812 C 127.515625 234.0625 124.78125 229.261719 124.128906 222.269531 C 123.464844 216.339844 124.613281 210.289062 127.617188 203.785156 C 127.863281 203.226562 128.144531 202.683594 128.433594 202.128906 C 128.589844 201.828125 128.746094 201.523438 128.902344 201.199219 C 132.300781 194.3125 137.167969 189.226562 143.386719 186.089844 L 143.566406 186 C 149.507812 182.464844 154.960938 181.863281 159.847656 184.222656 C 164.707031 186.761719 167.484375 191.558594 168.109375 198.5 C 168.621094 205.433594 167.003906 212.5625 163.3125 219.695312 C 161.15625 223.769531 158.714844 227.160156 156.03125 229.773438 C 153.785156 231.917969 151.378906 233.644531 148.925781 234.878906 " fill-opacity="1" fill-rule="nonzero"/></g></g></g><g clip-path="url(#e898f7fc34)"><g clip-path="url(#0c73be2e16)"><g clip-path="url(#85d3dea557)"><path fill="#896820" d="M 120.246094 191.625 L 119.855469 192.078125 C 119.191406 192.847656 118.570312 193.574219 117.878906 194.246094 C 116.148438 195.941406 114.324219 197.28125 112.457031 198.226562 C 109.570312 199.683594 106.511719 200.234375 103.320312 199.863281 C 97.328125 198.925781 92.59375 194.875 89.292969 187.886719 C 85.507812 181 84.238281 172.984375 85.519531 164.066406 C 86.050781 160.234375 86.929688 156.597656 88.128906 153.265625 C 89.753906 148.78125 91.859375 144.988281 94.558594 141.644531 C 99.636719 135.644531 105.351562 132.980469 111.488281 133.742188 C 117.285156 134.5 122.175781 138.363281 126.039062 145.242188 L 126.074219 145.304688 L 126.097656 145.375 C 129.09375 152.460938 130.097656 160.519531 129.09375 169.332031 C 128.570312 174.035156 127.503906 178.117188 125.875 181.726562 C 124.550781 185.308594 122.664062 188.628906 120.246094 191.625 " fill-opacity="1" fill-rule="nonzero"/></g></g></g></svg>