<svg xmlns="http://www.w3.org/2000/svg" xmlns:xlink="http://www.w3.org/1999/xlink" width="500" zoomAndPan="magnify" viewBox="0 0 375 374.999991" height="500" preserveAspectRatio="xMidYMid meet" version="1.0"><defs><clipPath id="2954e1902d"><path d="M 15 21.65625 L 237 21.65625 L 237 303 L 15 303 Z M 15 21.65625 " clip-rule="nonzero"/></clipPath></defs><path fill="#4f7b29" d="M 309.558594 293.910156 C 359.84375 227.308594 300.953125 90.519531 300.953125 90.519531 C 300.953125 90.519531 260.007812 154.101562 215.101562 171.871094 C 185.09375 183.730469 106.46875 239.152344 188.4375 316.972656 C 189.308594 317.804688 190.234375 318.644531 191.195312 319.464844 C 230.847656 299.085938 307.351562 241.707031 299.65625 104.382812 C 299.65625 104.382812 326.992188 260.789062 196.464844 323.679688 C 221.160156 341.9375 264.644531 353.402344 309.558594 293.910156 " fill-opacity="1" fill-rule="nonzero"/><g clip-path="url(#2954e1902d)"><path fill="#425b2b" d="M 171.199219 184.886719 C 151.832031 134.074219 111.105469 78.066406 29.148438 32.488281 C 29.148438 32.488281 137.398438 77.050781 179.59375 179.132812 C 186.082031 175.050781 192.175781 172 197.011719 170.09375 C 210.902344 164.59375 224.398438 154.722656 236.4375 143.699219 C 193.445312 49.914062 15.148438 21.699219 15.148438 21.699219 C 15.148438 21.699219 55.621094 108.738281 44.246094 168.96875 C 37.128906 206.621094 42.082031 315.859375 156.769531 300.828125 C 112.417969 247.78125 141.972656 206.636719 171.199219 184.886719 " fill-opacity="1" fill-rule="nonzero"/></g></svg>