<svg xmlns="http://www.w3.org/2000/svg" xmlns:xlink="http://www.w3.org/1999/xlink" width="500" zoomAndPan="magnify" viewBox="0 0 375 374.999991" height="500" preserveAspectRatio="xMidYMid meet" version="1.0"><defs><clipPath id="707db04450"><path d="M 9.375 87 L 143 87 L 143 267 L 9.375 267 Z M 9.375 87 " clip-rule="nonzero"/></clipPath></defs><g clip-path="url(#707db04450)"><path fill="#162c79" d="M 34.546875 161.394531 C 41.980469 150.640625 52.519531 140.402344 66.152344 138.980469 C 76.800781 137.867188 87.019531 144.269531 90.792969 153.160156 C 92.679688 157.605469 92.925781 161.515625 90.796875 166.230469 C 88.675781 170.917969 84.554688 174.589844 80.378906 177.898438 C 70.355469 185.828125 57.078125 193.453125 53.335938 206.570312 C 50.574219 216.257812 57.011719 225.804688 60.890625 234.316406 C 65.140625 243.652344 69.234375 253.085938 73.804688 262.273438 C 76.078125 266.839844 82.535156 268.667969 85.953125 264.03125 C 92.828125 254.707031 102.417969 247.917969 113.328125 244.121094 C 116.484375 243.023438 118.519531 238.707031 117.003906 235.621094 C 114.699219 230.933594 112.394531 226.253906 110.101562 221.566406 C 109.144531 219.613281 108.195312 217.660156 107.238281 215.707031 C 106.328125 213.851562 104.453125 211.300781 104.167969 209.234375 C 103.785156 206.460938 107.957031 203.601562 109.691406 201.753906 C 113.222656 197.992188 116.730469 194.199219 120.128906 190.3125 C 131.46875 177.332031 141.84375 161.785156 142.875 144.039062 C 143.867188 127.039062 136.105469 111.671875 122.671875 101.382812 C 108.820312 90.773438 91.554688 86.429688 74.308594 87.207031 C 53.511719 88.144531 33.367188 95.871094 14.359375 103.792969 C 10.855469 105.253906 9.707031 108.367188 10.167969 111.257812 C 9.765625 111.960938 9.558594 112.828125 9.65625 113.84375 C 11.214844 129.964844 17.953125 144.84375 23.675781 159.820312 C 25.320312 164.117188 31.789062 165.382812 34.546875 161.394531 " fill-opacity="1" fill-rule="nonzero"/></g><path fill="#162c79" d="M 106.1875 276.972656 C 99.980469 279.855469 97.042969 288.277344 97.371094 295.410156 C 97.847656 305.738281 104.269531 317.648438 115.40625 318.945312 C 137.738281 321.550781 148.765625 288.828125 130.195312 276.792969 C 123.324219 272.339844 112.246094 271.394531 106.1875 276.972656 " fill-opacity="1" fill-rule="nonzero"/><path fill="#162c79" d="M 194.546875 153.175781 C 189.921875 157.246094 183.746094 159.136719 177.875 160.585938 C 171.15625 162.246094 162.042969 162.601562 157.097656 168 C 151.867188 173.710938 153.421875 182.882812 153.390625 190 C 153.359375 198.667969 153.324219 207.339844 153.289062 216.007812 C 153.273438 219.933594 157.648438 222.605469 161.140625 222.320312 C 167.796875 221.773438 174.28125 222.074219 180.851562 223.277344 C 185.28125 224.085938 189.445312 219.980469 188.898438 215.574219 C 188.246094 210.367188 187.019531 200.941406 191.75 198.09375 C 195.644531 195.75 201.726562 196.34375 206.113281 195.597656 C 211.613281 194.664062 217.113281 193.289062 222.332031 191.296875 C 240.519531 184.351562 253.5 169.59375 258.789062 150.976562 C 269.574219 112.984375 243.839844 75.765625 208.796875 62.160156 C 189.144531 54.527344 167.464844 53.46875 146.8125 57.058594 C 145.5625 56.523438 143.871094 56.820312 143.023438 57.84375 C 139.828125 58.945312 137.496094 61.789062 137.894531 65.410156 C 138.191406 68.128906 144.984375 87.15625 144.691406 94.957031 C 144.535156 99.066406 147.816406 102.085938 151.933594 100.730469 C 171.144531 94.410156 194.433594 106.449219 200.578125 125.601562 C 203.507812 134.742188 202.042969 146.574219 194.546875 153.175781 " fill-opacity="1" fill-rule="nonzero"/><path fill="#162c79" d="M 187.71875 296.136719 C 196.519531 291.109375 200.9375 280.195312 200.894531 270.402344 C 200.851562 261.125 195.117188 252.203125 185.195312 250.59375 C 159.253906 246.394531 157.5625 273.714844 158.050781 276.976562 C 158.058594 277.386719 158.066406 277.792969 158.078125 278.191406 C 158.253906 282.871094 159.839844 287.796875 162.976562 291.339844 C 169.25 298.4375 179.261719 300.964844 187.71875 296.136719 " fill-opacity="1" fill-rule="nonzero"/><path fill="#162c79" d="M 342.792969 110.421875 C 330.089844 96.789062 313.046875 87.621094 294.46875 85.511719 C 287.851562 84.757812 281.523438 113.117188 278.125 121.277344 C 276.527344 125.113281 280.425781 129.203125 284.289062 128.394531 C 294.5 126.261719 300.585938 136.453125 302.699219 144.941406 C 304.9375 153.9375 305.628906 163.492188 304.351562 172.683594 C 303.214844 180.875 299.90625 189.011719 293.554688 194.519531 C 286.570312 200.578125 276.503906 202.660156 267.667969 200.046875 C 265.128906 199.296875 261.382812 199.957031 260.023438 202.59375 C 253.078125 216.085938 246.082031 229.558594 239.226562 243.09375 C 236.816406 247.847656 239.003906 252.445312 244.253906 253.476562 C 253.058594 255.199219 261.636719 257.992188 269.902344 261.457031 C 274.960938 263.578125 278.875 258.542969 278.503906 254.003906 C 277.882812 246.347656 284.183594 241.21875 291.003906 239.984375 C 295.566406 239.160156 300.171875 238.84375 304.675781 237.71875 C 308.75 236.699219 312.773438 235.320312 316.621094 233.648438 C 331.488281 227.179688 344.3125 215.480469 352.664062 201.648438 C 361.386719 187.195312 365.488281 170.40625 363.464844 153.585938 C 361.527344 137.546875 353.753906 122.1875 342.792969 110.421875 " fill-opacity="1" fill-rule="nonzero"/><path fill="#162c79" d="M 216.65625 293.019531 C 219.910156 302.25 230.378906 306.269531 239.449219 303.6875 C 249.828125 300.730469 256.804688 291.089844 256.007812 280.238281 C 255.207031 269.402344 245.859375 260.566406 234.839844 261.316406 C 228.765625 261.726562 223.273438 265.050781 219.53125 269.78125 C 217.789062 271.984375 216.539062 274.632812 215.800781 277.335938 C 215.363281 278.945312 214.941406 280.621094 215.171875 282.292969 C 215.277344 283.054688 215.785156 290.550781 216.65625 293.019531 " fill-opacity="1" fill-rule="nonzero"/></svg>