<svg xmlns="http://www.w3.org/2000/svg" xmlns:xlink="http://www.w3.org/1999/xlink" width="500" zoomAndPan="magnify" viewBox="0 0 375 374.999991" height="500" preserveAspectRatio="xMidYMid meet" version="1.0"><defs><g/><clipPath id="677210ad86"><path d="M 190 156 L 232 156 L 232 203 L 190 203 Z M 190 156 " clip-rule="nonzero"/></clipPath><clipPath id="394da786f6"><path d="M 140.757812 67.34375 L 259.714844 92.070312 L 234.53125 213.230469 L 115.574219 188.503906 Z M 140.757812 67.34375 " clip-rule="nonzero"/></clipPath><clipPath id="f542df8979"><path d="M 140.757812 67.34375 L 259.714844 92.070312 L 234.53125 213.230469 L 115.574219 188.503906 Z M 140.757812 67.34375 " clip-rule="nonzero"/></clipPath><clipPath id="640a349765"><path d="M 140.757812 67.34375 L 259.714844 92.070312 L 234.53125 213.230469 L 115.574219 188.503906 Z M 140.757812 67.34375 " clip-rule="nonzero"/></clipPath><clipPath id="8be932d065"><path d="M 209 169 L 221 169 L 221 184 L 209 184 Z M 209 169 " clip-rule="nonzero"/></clipPath><clipPath id="69130e96cd"><path d="M 140.757812 67.34375 L 259.714844 92.070312 L 234.53125 213.230469 L 115.574219 188.503906 Z M 140.757812 67.34375 " clip-rule="nonzero"/></clipPath><clipPath id="0815141870"><path d="M 140.757812 67.34375 L 259.714844 92.070312 L 234.53125 213.230469 L 115.574219 188.503906 Z M 140.757812 67.34375 " clip-rule="nonzero"/></clipPath><clipPath id="ebcfd356fb"><path d="M 140.757812 67.34375 L 259.714844 92.070312 L 234.53125 213.230469 L 115.574219 188.503906 Z M 140.757812 67.34375 " clip-rule="nonzero"/></clipPath><clipPath id="508515f788"><path d="M 199 171 L 210 171 L 210 192 L 199 192 Z M 199 171 " clip-rule="nonzero"/></clipPath><clipPath id="65af6aef84"><path d="M 140.757812 67.34375 L 259.714844 92.070312 L 234.53125 213.230469 L 115.574219 188.503906 Z M 140.757812 67.34375 " clip-rule="nonzero"/></clipPath><clipPath id="7136de12da"><path d="M 140.757812 67.34375 L 259.714844 92.070312 L 234.53125 213.230469 L 115.574219 188.503906 Z M 140.757812 67.34375 " clip-rule="nonzero"/></clipPath><clipPath id="36b322eb65"><path d="M 140.757812 67.34375 L 259.714844 92.070312 L 234.53125 213.230469 L 115.574219 188.503906 Z M 140.757812 67.34375 " clip-rule="nonzero"/></clipPath><clipPath id="b275e3ab38"><path d="M 139 89 L 233 89 L 233 184 L 139 184 Z M 139 89 " clip-rule="nonzero"/></clipPath><clipPath id="7f27653d95"><path d="M 140.757812 67.34375 L 259.714844 92.070312 L 234.53125 213.230469 L 115.574219 188.503906 Z M 140.757812 67.34375 " clip-rule="nonzero"/></clipPath><clipPath id="33be13075f"><path d="M 140.757812 67.34375 L 259.714844 92.070312 L 234.53125 213.230469 L 115.574219 188.503906 Z M 140.757812 67.34375 " clip-rule="nonzero"/></clipPath><clipPath id="b2ac55713b"><path d="M 140.757812 67.34375 L 259.714844 92.070312 L 234.53125 213.230469 L 115.574219 188.503906 Z M 140.757812 67.34375 " clip-rule="nonzero"/></clipPath><clipPath id="6342d6b95d"><path d="M 179 127 L 233 127 L 233 181 L 179 181 Z M 179 127 " clip-rule="nonzero"/></clipPath><clipPath id="19763a1c6c"><path d="M 140.757812 67.34375 L 259.714844 92.070312 L 234.53125 213.230469 L 115.574219 188.503906 Z M 140.757812 67.34375 " clip-rule="nonzero"/></clipPath><clipPath id="ffd96670aa"><path d="M 140.757812 67.34375 L 259.714844 92.070312 L 234.53125 213.230469 L 115.574219 188.503906 Z M 140.757812 67.34375 " clip-rule="nonzero"/></clipPath><clipPath id="ea0cc88909"><path d="M 140.757812 67.34375 L 259.714844 92.070312 L 234.53125 213.230469 L 115.574219 188.503906 Z M 140.757812 67.34375 " clip-rule="nonzero"/></clipPath><clipPath id="9cba469efa"><path d="M 198 161 L 225 161 L 225 203 L 198 203 Z M 198 161 " clip-rule="nonzero"/></clipPath><clipPath id="6979cca9c0"><path d="M 140.757812 67.34375 L 259.714844 92.070312 L 234.53125 213.230469 L 115.574219 188.503906 Z M 140.757812 67.34375 " clip-rule="nonzero"/></clipPath><clipPath id="72d097c073"><path d="M 140.757812 67.34375 L 259.714844 92.070312 L 234.53125 213.230469 L 115.574219 188.503906 Z M 140.757812 67.34375 " clip-rule="nonzero"/></clipPath><clipPath id="2bfdb4cd24"><path d="M 140.757812 67.34375 L 259.714844 92.070312 L 234.53125 213.230469 L 115.574219 188.503906 Z M 140.757812 67.34375 " clip-rule="nonzero"/></clipPath><clipPath id="1e49b3df2a"><path d="M 197 177 L 201 177 L 201 183 L 197 183 Z M 197 177 " clip-rule="nonzero"/></clipPath><clipPath id="8c7d0578e8"><path d="M 140.757812 67.34375 L 259.714844 92.070312 L 234.53125 213.230469 L 115.574219 188.503906 Z M 140.757812 67.34375 " clip-rule="nonzero"/></clipPath><clipPath id="b9c9bc9745"><path d="M 140.757812 67.34375 L 259.714844 92.070312 L 234.53125 213.230469 L 115.574219 188.503906 Z M 140.757812 67.34375 " clip-rule="nonzero"/></clipPath><clipPath id="d9f3b8d55c"><path d="M 140.757812 67.34375 L 259.714844 92.070312 L 234.53125 213.230469 L 115.574219 188.503906 Z M 140.757812 67.34375 " clip-rule="nonzero"/></clipPath><clipPath id="e641224918"><path d="M 213 173 L 219 173 L 219 177 L 213 177 Z M 213 173 " clip-rule="nonzero"/></clipPath><clipPath id="b57a21fe51"><path d="M 140.757812 67.34375 L 259.714844 92.070312 L 234.53125 213.230469 L 115.574219 188.503906 Z M 140.757812 67.34375 " clip-rule="nonzero"/></clipPath><clipPath id="12c5a1671a"><path d="M 140.757812 67.34375 L 259.714844 92.070312 L 234.53125 213.230469 L 115.574219 188.503906 Z M 140.757812 67.34375 " clip-rule="nonzero"/></clipPath><clipPath id="5acdddfaa7"><path d="M 140.757812 67.34375 L 259.714844 92.070312 L 234.53125 213.230469 L 115.574219 188.503906 Z M 140.757812 67.34375 " clip-rule="nonzero"/></clipPath><clipPath id="f5fc3a79f7"><path d="M 166 104 L 208 104 L 208 160 L 166 160 Z M 166 104 " clip-rule="nonzero"/></clipPath><clipPath id="174a6ad60c"><path d="M 140.757812 67.34375 L 259.714844 92.070312 L 234.53125 213.230469 L 115.574219 188.503906 Z M 140.757812 67.34375 " clip-rule="nonzero"/></clipPath><clipPath id="afc3d0a152"><path d="M 140.757812 67.34375 L 259.714844 92.070312 L 234.53125 213.230469 L 115.574219 188.503906 Z M 140.757812 67.34375 " clip-rule="nonzero"/></clipPath><clipPath id="dd740afe4f"><path d="M 140.757812 67.34375 L 259.714844 92.070312 L 234.53125 213.230469 L 115.574219 188.503906 Z M 140.757812 67.34375 " clip-rule="nonzero"/></clipPath><clipPath id="37928e491c"><path d="M 168 162 L 179 162 L 179 173 L 168 173 Z M 168 162 " clip-rule="nonzero"/></clipPath><clipPath id="c985531eb8"><path d="M 140.757812 67.34375 L 259.714844 92.070312 L 234.53125 213.230469 L 115.574219 188.503906 Z M 140.757812 67.34375 " clip-rule="nonzero"/></clipPath><clipPath id="bc9a2403b5"><path d="M 140.757812 67.34375 L 259.714844 92.070312 L 234.53125 213.230469 L 115.574219 188.503906 Z M 140.757812 67.34375 " clip-rule="nonzero"/></clipPath><clipPath id="c821be614a"><path d="M 140.757812 67.34375 L 259.714844 92.070312 L 234.53125 213.230469 L 115.574219 188.503906 Z M 140.757812 67.34375 " clip-rule="nonzero"/></clipPath><clipPath id="d1c8e01701"><path d="M 214 94 L 250 94 L 250 135 L 214 135 Z M 214 94 " clip-rule="nonzero"/></clipPath><clipPath id="7b5341b6ba"><path d="M 140.757812 67.34375 L 259.714844 92.070312 L 234.53125 213.230469 L 115.574219 188.503906 Z M 140.757812 67.34375 " clip-rule="nonzero"/></clipPath><clipPath id="7edf32bfce"><path d="M 140.757812 67.34375 L 259.714844 92.070312 L 234.53125 213.230469 L 115.574219 188.503906 Z M 140.757812 67.34375 " clip-rule="nonzero"/></clipPath><clipPath id="09f492f685"><path d="M 140.757812 67.34375 L 259.714844 92.070312 L 234.53125 213.230469 L 115.574219 188.503906 Z M 140.757812 67.34375 " clip-rule="nonzero"/></clipPath><clipPath id="dfcb53a0d6"><path d="M 207 135 L 217 135 L 217 144 L 207 144 Z M 207 135 " clip-rule="nonzero"/></clipPath><clipPath id="79654bef35"><path d="M 140.757812 67.34375 L 259.714844 92.070312 L 234.53125 213.230469 L 115.574219 188.503906 Z M 140.757812 67.34375 " clip-rule="nonzero"/></clipPath><clipPath id="466eef1909"><path d="M 140.757812 67.34375 L 259.714844 92.070312 L 234.53125 213.230469 L 115.574219 188.503906 Z M 140.757812 67.34375 " clip-rule="nonzero"/></clipPath><clipPath id="4f73ff7948"><path d="M 140.757812 67.34375 L 259.714844 92.070312 L 234.53125 213.230469 L 115.574219 188.503906 Z M 140.757812 67.34375 " clip-rule="nonzero"/></clipPath><clipPath id="e655768a2a"><path d="M 128 140 L 156 140 L 156 179 L 128 179 Z M 128 140 " clip-rule="nonzero"/></clipPath><clipPath id="1baad8008b"><path d="M 140.757812 67.34375 L 259.714844 92.070312 L 234.53125 213.230469 L 115.574219 188.503906 Z M 140.757812 67.34375 " clip-rule="nonzero"/></clipPath><clipPath id="742470307f"><path d="M 140.757812 67.34375 L 259.714844 92.070312 L 234.53125 213.230469 L 115.574219 188.503906 Z M 140.757812 67.34375 " clip-rule="nonzero"/></clipPath><clipPath id="fee5332632"><path d="M 140.757812 67.34375 L 259.714844 92.070312 L 234.53125 213.230469 L 115.574219 188.503906 Z M 140.757812 67.34375 " clip-rule="nonzero"/></clipPath><clipPath id="1ffcde54da"><path d="M 142 180 L 149 180 L 149 188 L 142 188 Z M 142 180 " clip-rule="nonzero"/></clipPath><clipPath id="7ed3749ad5"><path d="M 140.757812 67.34375 L 259.714844 92.070312 L 234.53125 213.230469 L 115.574219 188.503906 Z M 140.757812 67.34375 " clip-rule="nonzero"/></clipPath><clipPath id="043b89949a"><path d="M 140.757812 67.34375 L 259.714844 92.070312 L 234.53125 213.230469 L 115.574219 188.503906 Z M 140.757812 67.34375 " clip-rule="nonzero"/></clipPath><clipPath id="d34d2bcf21"><path d="M 140.757812 67.34375 L 259.714844 92.070312 L 234.53125 213.230469 L 115.574219 188.503906 Z M 140.757812 67.34375 " clip-rule="nonzero"/></clipPath><clipPath id="c90f698e83"><path d="M 200 163 L 206 163 L 206 170 L 200 170 Z M 200 163 " clip-rule="nonzero"/></clipPath><clipPath id="b3f253fd22"><path d="M 140.757812 67.34375 L 259.714844 92.070312 L 234.53125 213.230469 L 115.574219 188.503906 Z M 140.757812 67.34375 " clip-rule="nonzero"/></clipPath><clipPath id="77c74e6f01"><path d="M 140.757812 67.34375 L 259.714844 92.070312 L 234.53125 213.230469 L 115.574219 188.503906 Z M 140.757812 67.34375 " clip-rule="nonzero"/></clipPath><clipPath id="a3e801c3fb"><path d="M 140.757812 67.34375 L 259.714844 92.070312 L 234.53125 213.230469 L 115.574219 188.503906 Z M 140.757812 67.34375 " clip-rule="nonzero"/></clipPath></defs><rect x="-37.5" width="450" fill="#ffffff" y="-37.499999" height="449.999989" fill-opacity="1"/><rect x="-37.5" width="450" fill="#ffffff" y="-37.499999" height="449.999989" fill-opacity="1"/><g clip-path="url(#677210ad86)"><g clip-path="url(#394da786f6)"><g clip-path="url(#f542df8979)"><g clip-path="url(#640a349765)"><path fill="#feac7c" d="M 230.65625 195.832031 C 232.078125 191.398438 230.355469 164.285156 228.703125 160.273438 C 227.046875 156.265625 223.589844 155.875 211.609375 157.472656 C 199.628906 159.074219 197.371094 172.347656 197.371094 172.347656 C 197.371094 172.347656 193.132812 178.867188 191.476562 180.71875 C 189.824219 182.570312 191.183594 184.335938 193.023438 184.3125 C 194.867188 184.292969 197.21875 182.90625 197.21875 182.90625 L 195.835938 188.007812 C 195.835938 188.007812 195.554688 190.449219 198.285156 189.792969 C 201.015625 189.136719 202.230469 186.976562 202.230469 186.976562 C 202.230469 186.976562 201.050781 191.230469 205.984375 191.03125 C 210.921875 190.835938 212.6875 192.414062 212.828125 193.410156 C 212.96875 194.40625 215.417969 202.054688 215.773438 202.367188 C 216.125 202.683594 226.957031 201.484375 228.605469 201.054688 C 230.257812 200.628906 230.65625 195.832031 230.65625 195.832031 Z M 230.65625 195.832031 " fill-opacity="1" fill-rule="nonzero"/></g></g></g></g><g clip-path="url(#8be932d065)"><g clip-path="url(#69130e96cd)"><g clip-path="url(#0815141870)"><g clip-path="url(#ebcfd356fb)"><path fill="#ff4b3d" d="M 211.019531 169.859375 C 211.019531 169.859375 212.867188 173.605469 214.628906 175.09375 C 216.390625 176.585938 219.722656 177.695312 220.847656 181.945312 C 221.574219 184.695312 217.8125 183.832031 217.8125 183.832031 C 217.8125 183.832031 212.4375 179.28125 210.09375 174.976562 C 207.753906 170.671875 211.019531 169.859375 211.019531 169.859375 Z M 211.019531 169.859375 " fill-opacity="1" fill-rule="nonzero"/></g></g></g></g><g clip-path="url(#508515f788)"><g clip-path="url(#65af6aef84)"><g clip-path="url(#7136de12da)"><g clip-path="url(#36b322eb65)"><path fill="#ff4b3d" d="M 199.246094 172.199219 C 198.984375 172.714844 202.332031 179.183594 203.136719 180.8125 C 203.941406 182.441406 206.742188 190.320312 208.664062 191.71875 C 210.589844 193.117188 205.835938 175.96875 203.558594 172.832031 C 201.285156 169.695312 199.527344 171.972656 199.246094 172.199219 Z M 199.246094 172.199219 " fill-opacity="1" fill-rule="nonzero"/></g></g></g></g><g clip-path="url(#b275e3ab38)"><g clip-path="url(#7f27653d95)"><g clip-path="url(#33be13075f)"><g clip-path="url(#b2ac55713b)"><path fill="#7738c7" d="M 146.003906 104 C 146.003906 104 168.34375 101.730469 186.691406 97.175781 C 205.042969 92.621094 215.914062 86.308594 218.039062 91.214844 C 220.164062 96.117188 220.363281 131.777344 226.152344 145.011719 C 231.941406 158.25 232.382812 157.21875 232.027344 159.75 C 231.667969 162.285156 205.390625 174.824219 182.546875 179.96875 C 154.121094 186.367188 151.421875 183.90625 152.660156 176.300781 C 153.902344 168.695312 147.042969 130.902344 143.53125 119.378906 C 140.023438 107.855469 136.617188 104.027344 146.003906 104 Z M 146.003906 104 " fill-opacity="1" fill-rule="nonzero"/></g></g></g></g><g clip-path="url(#6342d6b95d)"><g clip-path="url(#19763a1c6c)"><g clip-path="url(#ffd96670aa)"><g clip-path="url(#ea0cc88909)"><path fill="#171d8f" d="M 222.117188 127.53125 C 221.5 130.464844 217.449219 148.109375 206.621094 161.910156 C 194.785156 176.992188 179.296875 180.382812 179.296875 180.382812 C 179.296875 180.382812 179.394531 180.554688 179.449219 180.648438 C 180.449219 180.433594 181.476562 180.207031 182.546875 179.96875 C 205.390625 174.824219 231.667969 162.285156 232.027344 159.75 C 232.382812 157.21875 231.941406 158.25 226.152344 145.011719 C 224.332031 140.851562 223.066406 134.472656 222.117188 127.53125 Z M 222.117188 127.53125 " fill-opacity="1" fill-rule="nonzero"/></g></g></g></g><g clip-path="url(#9cba469efa)"><g clip-path="url(#6979cca9c0)"><g clip-path="url(#72d097c073)"><g clip-path="url(#2bfdb4cd24)"><path fill="#feac7c" d="M 210.730469 200.726562 C 210.164062 199.589844 205.007812 194.4375 204.289062 184.847656 C 203.574219 175.261719 198.1875 169.035156 198.949219 164.804688 C 199.714844 160.574219 203.109375 159.878906 206.136719 164.398438 C 209.160156 168.914062 211.8125 175.714844 215.070312 176.953125 C 218.328125 178.195312 222.183594 182.582031 223.523438 186.941406 C 224.863281 191.304688 226.683594 196.773438 221.117188 200.558594 C 215.550781 204.34375 212.003906 202.414062 210.730469 200.726562 Z M 210.730469 200.726562 " fill-opacity="1" fill-rule="nonzero"/></g></g></g></g><g clip-path="url(#1e49b3df2a)"><g clip-path="url(#8c7d0578e8)"><g clip-path="url(#b9c9bc9745)"><g clip-path="url(#d9f3b8d55c)"><path fill="#ff4b3d" d="M 197.21875 182.90625 C 197.21875 182.90625 199.652344 179.292969 200.261719 178.210938 C 200.871094 177.128906 199.1875 179.234375 198.042969 180.472656 C 196.898438 181.707031 197.21875 182.90625 197.21875 182.90625 Z M 197.21875 182.90625 " fill-opacity="1" fill-rule="nonzero"/></g></g></g></g><g clip-path="url(#e641224918)"><g clip-path="url(#b57a21fe51)"><g clip-path="url(#12c5a1671a)"><g clip-path="url(#5acdddfaa7)"><path fill="#ff4b3d" d="M 214.175781 176.015625 C 214.394531 175.707031 216.371094 174.46875 218.132812 174.191406 C 219.894531 173.914062 217.265625 172.554688 215.605469 173.535156 C 213.941406 174.519531 213.273438 174.761719 213.273438 174.761719 Z M 214.175781 176.015625 " fill-opacity="1" fill-rule="nonzero"/></g></g></g></g><g clip-path="url(#f5fc3a79f7)"><g clip-path="url(#174a6ad60c)"><g clip-path="url(#afc3d0a152)"><g clip-path="url(#dd740afe4f)"><path fill="#ffffff" d="M 167.3125 118.292969 C 167.3125 118.292969 172.265625 103.683594 187.488281 104.9375 C 202.714844 106.1875 214.445312 124.265625 203.84375 135.09375 C 193.238281 145.921875 184.503906 143.585938 181.824219 148.9375 C 179.144531 154.289062 180.671875 160.339844 175.398438 159.765625 C 170.125 159.191406 172.058594 145.691406 178.136719 141.566406 C 184.214844 137.445312 198.601562 134.351562 198.304688 124.90625 C 198.003906 115.460938 188.734375 113.1875 183.460938 116.785156 C 178.191406 120.378906 181.5625 125.078125 176.035156 127.402344 C 170.503906 129.730469 163.132812 128.371094 167.3125 118.292969 Z M 167.3125 118.292969 " fill-opacity="1" fill-rule="nonzero"/></g></g></g></g><g clip-path="url(#37928e491c)"><g clip-path="url(#c985531eb8)"><g clip-path="url(#bc9a2403b5)"><g clip-path="url(#c821be614a)"><path fill="#ffffff" d="M 170.378906 164.03125 C 167.917969 166.648438 166.339844 172.574219 172.015625 172.886719 C 177.695312 173.199219 177.761719 168.695312 178.042969 166.496094 C 178.328125 164.292969 173.773438 161.089844 170.378906 164.03125 Z M 170.378906 164.03125 " fill-opacity="1" fill-rule="nonzero"/></g></g></g></g><g clip-path="url(#d1c8e01701)"><g clip-path="url(#7b5341b6ba)"><g clip-path="url(#7edf32bfce)"><g clip-path="url(#09f492f685)"><path fill="#ffc517" d="M 220.664062 100.96875 C 220.664062 100.96875 228.144531 91.308594 239.222656 96.167969 C 250.300781 101.03125 254.410156 117.585938 243.671875 122.957031 C 232.9375 128.328125 227 124.328125 223.609375 127.644531 C 220.222656 130.957031 219.800781 135.882812 216 134.089844 C 212.199219 132.300781 217.136719 122.695312 222.753906 121.175781 C 228.371094 119.65625 239.941406 121.050781 242.160156 113.90625 C 244.375 106.757812 238.019531 102.667969 233.144531 104 C 228.269531 105.332031 229.582031 109.71875 224.839844 110.035156 C 220.097656 110.347656 214.929688 107.433594 220.664062 100.96875 Z M 220.664062 100.96875 " fill-opacity="1" fill-rule="nonzero"/></g></g></g></g><g clip-path="url(#dfcb53a0d6)"><g clip-path="url(#79654bef35)"><g clip-path="url(#466eef1909)"><g clip-path="url(#4f73ff7948)"><path fill="#ffc517" d="M 211.140625 135.992188 C 208.625 137.316406 205.910156 141.347656 210.078125 143.042969 C 214.25 144.738281 215.464844 141.382812 216.242188 139.808594 C 217.023438 138.238281 214.441406 134.664062 211.140625 135.992188 Z M 211.140625 135.992188 " fill-opacity="1" fill-rule="nonzero"/></g></g></g></g><g clip-path="url(#e655768a2a)"><g clip-path="url(#1baad8008b)"><g clip-path="url(#742470307f)"><g clip-path="url(#fee5332632)"><path fill="#ff4b3d" d="M 128.300781 154.855469 C 128.300781 154.855469 127.265625 144.5625 136.90625 141.109375 C 146.550781 137.65625 158.730469 145.445312 155.265625 154.996094 C 151.804688 164.546875 145.820312 165.539062 145.675781 169.550781 C 145.527344 173.5625 148.140625 176.832031 144.757812 177.945312 C 141.378906 179.054688 138.8125 170.273438 141.375 166.070312 C 143.9375 161.871094 151.863281 155.996094 149.054688 150.308594 C 146.25 144.625 139.957031 145.804688 137.738281 149.460938 C 135.519531 153.117188 138.886719 155.050781 136.15625 158.003906 C 133.425781 160.957031 128.550781 162.171875 128.300781 154.855469 Z M 128.300781 154.855469 " fill-opacity="1" fill-rule="nonzero"/></g></g></g></g><g clip-path="url(#1ffcde54da)"><g clip-path="url(#7ed3749ad5)"><g clip-path="url(#043b89949a)"><g clip-path="url(#d34d2bcf21)"><path fill="#ff4b3d" d="M 142.878906 181.941406 C 142.105469 184.21875 142.789062 188.277344 146.339844 186.894531 C 149.894531 185.511719 148.683594 182.742188 148.242188 181.320312 C 147.804688 179.898438 144.136719 179.203125 142.878906 181.941406 Z M 142.878906 181.941406 " fill-opacity="1" fill-rule="nonzero"/></g></g></g></g><g clip-path="url(#c90f698e83)"><g clip-path="url(#b3f253fd22)"><g clip-path="url(#77c74e6f01)"><g clip-path="url(#a3e801c3fb)"><path fill="#fecd91" d="M 202.425781 163.253906 C 202.257812 163.21875 199.929688 162.910156 200.257812 166.148438 C 200.585938 169.386719 201.410156 169.820312 203.207031 169.542969 C 205.003906 169.261719 206.675781 167.917969 205.484375 166.324219 C 204.292969 164.726562 203.6875 163.472656 202.425781 163.253906 Z M 202.425781 163.253906 " fill-opacity="1" fill-rule="nonzero"/></g></g></g></g><path stroke-linecap="butt" transform="matrix(0.75, 0, 0, 0.75, 73.443324, 202.769811)" fill="none" stroke-linejoin="miter" d="M 1.434944 47.99963 L 9.476611 -3.114957 L 35.471404 -3.114957 C 43.695363 -3.114957 49.742238 -1.375374 53.601614 2.109001 C 57.476614 5.588168 59.007864 10.666294 58.184947 17.332961 C 57.304739 24.098586 54.45578 29.353795 49.627655 33.114212 C 44.815155 36.859004 38.492238 38.728796 30.658904 38.728796 L 26.20057 38.728796 L 24.737028 47.99963 Z M 28.747445 22.431919 L 30.210987 22.431919 C 31.278695 22.431919 31.888071 21.947544 32.028696 20.968378 L 32.919321 15.640252 C 33.065154 14.676711 32.544321 14.197544 31.372445 14.197544 L 30.070362 14.197544 Z M 53.497447 47.99963 L 78.622449 -3.114957 L 106.075575 -3.114957 L 116.153701 47.99963 L 88.908908 47.99963 L 88.908908 42.010046 L 83.007866 42.010046 L 80.882865 47.99963 Z M 86.216199 28.280878 L 89.638074 28.280878 L 90.528699 15.801711 L 89.351616 15.801711 Z M 117.309951 47.99963 L 125.351618 -3.114957 L 152.28912 -3.114957 L 154.768287 6.155877 L 153.898495 15.426711 L 154.929745 15.426711 L 157.106829 6.155877 L 162.523496 -3.114957 L 189.393289 -3.114957 L 181.351622 47.99963 L 158.424537 47.99963 L 159.742246 39.671504 L 162.955787 28.067337 L 161.934954 28.067337 L 157.481829 37.624629 L 144.408911 37.624629 L 143.018286 28.067337 L 142.002661 28.067337 L 141.559953 39.671504 L 140.237036 47.99963 Z M 185.507872 47.99963 L 193.549539 -3.114957 L 219.544333 -3.114957 C 227.768292 -3.114957 233.815167 -1.375374 237.674542 2.109001 C 241.549543 5.588168 243.080793 10.666294 242.257876 17.332961 C 241.377668 24.098586 238.523501 29.353795 233.700584 33.114212 C 228.888083 36.859004 222.559958 38.728796 214.731833 38.728796 L 210.273499 38.728796 L 208.809957 47.99963 Z M 212.820374 22.431919 L 214.283916 22.431919 C 215.351624 22.431919 215.960999 21.947544 216.101624 20.968378 L 216.992249 15.640252 C 217.138083 14.676711 216.617249 14.197544 215.440166 14.197544 L 214.143291 14.197544 Z M 237.570376 47.99963 L 262.695377 -3.114957 L 290.148504 -3.114957 L 300.22663 47.99963 L 272.981836 47.99963 L 272.981836 42.010046 L 267.080794 42.010046 L 264.955794 47.99963 Z M 270.289128 28.280878 L 273.711003 28.280878 L 274.601628 15.801711 L 273.424545 15.801711 Z M 270.289128 28.280878 " stroke="#506b38" stroke-width="8.8557" stroke-opacity="1" stroke-miterlimit="4"/><path stroke-linecap="butt" transform="matrix(0.75, 0, 0, 0.75, 73.443324, 202.769811)" fill="none" stroke-linejoin="miter" d="M 101.039117 113.989217 L 95.549533 107.551717 C 92.044324 108.7288 88.148491 109.317342 83.872449 109.317342 C 77.783907 109.317342 72.695365 108.192342 68.606823 105.931925 C 64.518281 103.661091 61.606822 100.431925 59.872447 96.249633 C 58.148489 92.056924 57.726614 87.109007 58.606822 81.416298 C 59.487031 75.957965 61.309947 71.312131 64.080781 67.473589 C 66.851614 63.624631 70.424531 60.676714 74.815157 58.629839 C 79.200574 56.582963 84.216199 55.56213 89.862033 55.56213 C 95.992241 55.56213 101.117242 56.707963 105.231825 59.004839 C 109.341201 61.286089 112.294326 64.525672 114.091201 68.723589 C 115.898493 72.905881 116.335993 77.843381 115.408909 83.53609 C 114.450576 89.135049 112.502659 93.885049 109.580784 97.786091 L 114.325576 103.5413 Z M 85.992241 89.530882 C 86.966199 89.530882 87.523491 89.041299 87.669324 88.06734 L 89.414116 76.885048 C 89.570366 75.91109 89.158908 75.426715 88.184949 75.426715 C 87.117241 75.426715 86.502657 75.91109 86.346407 76.885048 L 84.601616 88.06734 C 84.460991 89.041299 84.924532 89.530882 85.992241 89.530882 Z M 140.377661 109.317342 C 131.710994 109.317342 125.403702 107.379842 121.460993 103.504841 C 117.523493 99.629841 116.117243 94.046508 117.231826 86.749632 L 121.903701 56.885047 L 146.367245 56.885047 L 141.627661 87.265257 C 141.434953 88.239215 141.851619 88.728799 142.872453 88.728799 C 143.893286 88.728799 144.502661 88.239215 144.690161 87.265257 L 149.434953 56.885047 L 173.898497 56.885047 L 169.226621 86.749632 C 166.893288 101.796508 157.278704 109.317342 140.377661 109.317342 Z M 169.653705 107.999633 L 177.695372 56.885047 L 202.158915 56.885047 L 194.117248 107.999633 Z M 197.33079 107.999633 L 199.45579 94.416299 L 216.606833 77.546506 L 216.747458 76.369423 L 203.252665 76.369423 L 206.320374 56.885047 L 250.502668 56.885047 L 248.377668 70.468381 L 232.528709 87.332965 L 232.388084 88.494424 L 246.773501 88.494424 L 243.705793 107.999633 Z M 197.33079 107.999633 " stroke="#506b38" stroke-width="8.8557" stroke-opacity="1" stroke-miterlimit="4"/><g fill="#ffffff" fill-opacity="1"><g transform="translate(75.013636, 238.769809)"><g><path d="M -0.5 0 L 5.53125 -38.34375 L 25.03125 -38.34375 C 31.195312 -38.34375 35.726562 -37.035156 38.625 -34.421875 C 41.53125 -31.804688 42.675781 -28 42.0625 -23 C 41.40625 -17.925781 39.269531 -13.984375 35.65625 -11.171875 C 32.039062 -8.359375 27.289062 -6.953125 21.40625 -6.953125 L 18.078125 -6.953125 L 16.984375 0 Z M 19.984375 -19.171875 L 21.078125 -19.171875 C 21.890625 -19.171875 22.347656 -19.535156 22.453125 -20.265625 L 23.109375 -24.265625 C 23.222656 -24.992188 22.84375 -25.359375 21.96875 -25.359375 L 20.96875 -25.359375 Z M 19.984375 -19.171875 "/></g></g></g><g fill="#ffffff" fill-opacity="1"><g transform="translate(115.920677, 238.769809)"><g><path d="M -2.359375 0 L 16.484375 -38.34375 L 37.078125 -38.34375 L 44.640625 0 L 24.203125 0 L 24.203125 -4.484375 L 19.765625 -4.484375 L 18.1875 0 Z M 22.1875 -14.78125 L 24.75 -14.78125 L 25.40625 -24.15625 L 24.53125 -24.15625 Z M 22.1875 -14.78125 "/></g></g></g><g fill="#ffffff" fill-opacity="1"><g transform="translate(161.920556, 238.769809)"><g><path d="M -0.5 0 L 5.53125 -38.34375 L 25.734375 -38.34375 L 27.609375 -31.375 L 26.9375 -24.421875 L 27.71875 -24.421875 L 29.359375 -31.375 L 33.40625 -38.34375 L 53.5625 -38.34375 L 47.53125 0 L 30.34375 0 L 31.328125 -6.25 L 33.734375 -14.953125 L 32.96875 -14.953125 L 29.625 -7.78125 L 19.828125 -7.78125 L 18.78125 -14.953125 L 18.015625 -14.953125 L 17.6875 -6.25 L 16.703125 0 Z M -0.5 0 "/></g></g></g><g fill="#ffffff" fill-opacity="1"><g transform="translate(213.068044, 238.769809)"><g><path d="M -0.5 0 L 5.53125 -38.34375 L 25.03125 -38.34375 C 31.195312 -38.34375 35.726562 -37.035156 38.625 -34.421875 C 41.53125 -31.804688 42.675781 -28 42.0625 -23 C 41.40625 -17.925781 39.269531 -13.984375 35.65625 -11.171875 C 32.039062 -8.359375 27.289062 -6.953125 21.40625 -6.953125 L 18.078125 -6.953125 L 16.984375 0 Z M 19.984375 -19.171875 L 21.078125 -19.171875 C 21.890625 -19.171875 22.347656 -19.535156 22.453125 -20.265625 L 23.109375 -24.265625 C 23.222656 -24.992188 22.84375 -25.359375 21.96875 -25.359375 L 20.96875 -25.359375 Z M 19.984375 -19.171875 "/></g></g></g><g fill="#ffffff" fill-opacity="1"><g transform="translate(253.975085, 238.769809)"><g><path d="M -2.359375 0 L 16.484375 -38.34375 L 37.078125 -38.34375 L 44.640625 0 L 24.203125 0 L 24.203125 -4.484375 L 19.765625 -4.484375 L 18.1875 0 Z M 22.1875 -14.78125 L 24.75 -14.78125 L 25.40625 -24.15625 L 24.53125 -24.15625 Z M 22.1875 -14.78125 "/></g></g></g><g fill="#ffffff" fill-opacity="1"><g transform="translate(115.806602, 283.769806)"><g><path d="M 33.40625 4.484375 L 29.296875 -0.328125 C 26.671875 0.546875 23.75 0.984375 20.53125 0.984375 C 15.96875 0.984375 12.148438 0.132812 9.078125 -1.5625 C 6.015625 -3.257812 3.835938 -5.675781 2.546875 -8.8125 C 1.253906 -11.957031 0.9375 -15.664062 1.59375 -19.9375 C 2.25 -24.019531 3.613281 -27.503906 5.6875 -30.390625 C 7.769531 -33.273438 10.453125 -35.484375 13.734375 -37.015625 C 17.023438 -38.554688 20.789062 -39.328125 25.03125 -39.328125 C 29.625 -39.328125 33.460938 -38.46875 36.546875 -36.75 C 39.640625 -35.03125 41.859375 -32.597656 43.203125 -29.453125 C 44.554688 -26.316406 44.890625 -22.613281 44.203125 -18.34375 C 43.460938 -14.144531 42 -10.585938 39.8125 -7.671875 L 43.375 -3.34375 Z M 22.125 -13.859375 C 22.851562 -13.859375 23.273438 -14.222656 23.390625 -14.953125 L 24.703125 -23.328125 C 24.804688 -24.054688 24.492188 -24.421875 23.765625 -24.421875 C 22.960938 -24.421875 22.507812 -24.054688 22.40625 -23.328125 L 21.078125 -14.953125 C 20.972656 -14.222656 21.320312 -13.859375 22.125 -13.859375 Z M 22.125 -13.859375 "/></g></g></g><g fill="#ffffff" fill-opacity="1"><g transform="translate(159.670773, 283.769806)"><g><path d="M 19.0625 0.984375 C 12.5625 0.984375 7.832031 -0.460938 4.875 -3.359375 C 1.914062 -6.265625 0.859375 -10.457031 1.703125 -15.9375 L 5.203125 -38.34375 L 23.546875 -38.34375 L 19.984375 -15.546875 C 19.835938 -14.816406 20.148438 -14.453125 20.921875 -14.453125 C 21.691406 -14.453125 22.148438 -14.816406 22.296875 -15.546875 L 25.84375 -38.34375 L 44.203125 -38.34375 L 40.6875 -15.9375 C 38.9375 -4.65625 31.726562 0.984375 19.0625 0.984375 Z M 19.0625 0.984375 "/></g></g></g><g fill="#ffffff" fill-opacity="1"><g transform="translate(201.180185, 283.769806)"><g><path d="M -0.5 0 L 5.53125 -38.34375 L 23.875 -38.34375 L 17.859375 0 Z M -0.5 0 "/></g></g></g><g fill="#ffffff" fill-opacity="1"><g transform="translate(222.646794, 283.769806)"><g><path d="M -1.203125 0 L 0.390625 -10.1875 L 13.25 -22.84375 L 13.359375 -23.71875 L 3.234375 -23.71875 L 5.53125 -38.34375 L 38.671875 -38.34375 L 37.078125 -28.15625 L 25.1875 -15.5 L 25.078125 -14.625 L 35.875 -14.625 L 33.578125 0 Z M -1.203125 0 "/></g></g></g></svg>